HIERARCHY
ROOT Hips
{
	OFFSET 0.00000 0.00000 0.00000
	CHANNELS 6 Xposition Yposition Zposition Zrotation Yrotation Xrotation 
	JOINT LHipJoint
	{
		OFFSET 0 0 0
		CHANNELS 3 Zrotation Yrotation Xrotation
		JOINT LeftHip
		{
			OFFSET 1.58161 -1.81893 0.78828
			CHANNELS 3 Zrotation Yrotation Xrotation
			JOINT LeftKnee
			{
				OFFSET 2.53374 -6.96141 0.00000
				CHANNELS 3 Zrotation Yrotation Xrotation
				JOINT LeftAnkle
				{
					OFFSET 2.63509 -7.23986 0.00000
					CHANNELS 3 Zrotation Yrotation Xrotation
					JOINT LeftToe
					{
						OFFSET 0.14115 -0.38781 2.05350
						CHANNELS 3 Zrotation Yrotation Xrotation
						End Site
						{
							OFFSET 0.00000 -0.00000 1.05543
						}
					}
				}
			}
		}
	}
	JOINT RHipJoint
	{
		OFFSET 0 0 0
		CHANNELS 3 Zrotation Yrotation Xrotation
		JOINT RightHip
		{
			OFFSET -1.11138 -1.81893 0.78828
			CHANNELS 3 Zrotation Yrotation Xrotation
			JOINT RightKnee
			{
				OFFSET -2.58392 -7.09926 0.00000
				CHANNELS 3 Zrotation Yrotation Xrotation
				JOINT RightAnkle
				{
					OFFSET -2.66423 -7.31992 0.00000
					CHANNELS 3 Zrotation Yrotation Xrotation
					JOINT RightToe
					{
						OFFSET -0.18831 -0.51739 2.12114
						CHANNELS 3 Zrotation Yrotation Xrotation
						End Site
						{
							OFFSET -0.00000 -0.00000 1.09845
						}
					}
				}
			}
		}
	}
	JOINT lowerback
	{
		OFFSET 0 0 0
		CHANNELS 3 Zrotation Yrotation Xrotation
		JOINT Chest
		{
			OFFSET -0.01511 1.97958 -0.08829
			CHANNELS 3 Zrotation Yrotation Xrotation
			JOINT Chest2
			{
				OFFSET 0.08344 1.97334 -0.04330
				CHANNELS 3 Zrotation Yrotation Xrotation
				JOINT lowerneck
				{
					OFFSET 0 0 0
					CHANNELS 3 Zrotation Yrotation Xrotation
					JOINT Neck
					{
						OFFSET 0.00559 1.76246 0.31246
						CHANNELS 3 Zrotation Yrotation Xrotation
						JOINT Head
						{
							OFFSET -0.07011 1.80354 -0.30524
							CHANNELS 3 Zrotation Yrotation Xrotation
							End Site
							{
								OFFSET -0.02385 1.83547 -0.13906
							}
						}
					}
				}
				JOINT LeftCollar
				{
					OFFSET 0 0 0
					CHANNELS 3 Zrotation Yrotation Xrotation
					JOINT LeftShoulder
					{
						OFFSET 3.20667 1.30156 -0.60240
CHANNELS 3 Zrotation Xrotation Yrotation
						JOINT LeftElbow
						{
OFFSET 0 -4.956630 0.000000
CHANNELS 3 Zrotation Xrotation Yrotation
							JOINT LeftWrist
							{
OFFSET 0 -3.381770 0.000000
CHANNELS 3 Zrotation Xrotation Yrotation
								JOINT lhand
								{
									OFFSET 0 0 0
CHANNELS 3 Zrotation Xrotation Yrotation
									JOINT LFingers
									{
OFFSET 0 -0.662910 0.000000
CHANNELS 3 Zrotation Xrotation Yrotation
										End Site
										{
OFFSET 0 -0.534450 0.000000
										}
									}
								}
								JOINT LThumb
								{
OFFSET 0 0.000000 0.000000
CHANNELS 3 Zrotation Xrotation Yrotation
									End Site
									{
OFFSET 0 -0.542610 0.542610
									}
								}
							}
						}
					}
				}
				JOINT RightCollar
				{
					OFFSET 0 0 0
					CHANNELS 3 Zrotation Yrotation Xrotation
					JOINT RightShoulder
					{
						OFFSET -3.06877 1.34672 -0.60964
CHANNELS 3 Zrotation Xrotation Yrotation
						JOINT RightElbow
						{
OFFSET 0 -5.083650 0.000000
CHANNELS 3 Zrotation Xrotation Yrotation
							JOINT RightWrist
							{
OFFSET 0 -3.359840 0.000000
CHANNELS 3 Zrotation Xrotation Yrotation
								JOINT rhand
								{
									OFFSET 0 0 0
CHANNELS 3 Zrotation Xrotation Yrotation
									JOINT RFingers
									{
OFFSET 0 -0.820760 0.000000
CHANNELS 3 Zrotation Xrotation Yrotation
										End Site
										{
OFFSET 0 -0.661720 0.000000
										}
									}
								}
								JOINT RThumb
								{
OFFSET 0 0.000000 0.000000
CHANNELS 3 Zrotation Xrotation Yrotation
									End Site
									{
OFFSET 0 -0.671820 0.671820
									}
								}
							}
						}
					}
				}
			}
		}
	}
}
MOTION
Frames: 15
Frame Time: .0083333
-0.6501 18.0942 -9.2845 -6.0390 0.5154 7.3764 0.0000 0.0000 0.0000 -12.2317 -0.9802 -14.2931 2.1748 9.2211 26.4895 0.7664 -1.9948 -15.9835 0.3111 -3.5858 -9.9142 0.0000 0.0000 0.0000 27.6752 6.2439 -15.4686 -1.7864 -8.4062 23.9547 -0.2337 -6.9658 -14.2266 -0.3368 -3.7295 10.3170 0.3731 0.2634 -5.4108 5.0222 0.1836 -0.2361 5.0151 0.0660 2.7798 0.8558 1.1617 -15.5173 -5.4661 3.9156 40.9433 -1.9448 0.9687 18.0243 0.0000 -0.0000 0.0000 -1.7995 -2.357 -33.8215 12.8752 -21.1042 2.4082 34.6703 6.5448 -16.3108 0.0 0.0 0.0 -7.1250 0.0 0.0 6.8552 49.4426 -0.7541 0.0000 -0.0000 0.0000 -6.0033 -2.9993 25.1107 -12.6555 -20.7803 -2.3296 -18.5252 -10.0469 -10.1358 0.0 0.0 0.0 7.1250 0.0 -0.0 6.0255 19.3338 3.7113
-0.6353 18.1037 -9.2936 -5.9633 0.7759 7.4397 0.0000 0.0000 0.0000 -12.3498 -1.0640 -14.2848 2.1331 9.1379 26.2278 0.7660 -1.8455 -16.0122 0.4800 -4.4430 -12.3264 0.0000 0.0000 0.0000 27.5445 6.0620 -15.5876 -1.7742 -8.3791 23.8715 -0.2672 -6.7711 -14.5263 -0.4929 -4.5012 12.4913 0.1594 0.1590 -5.4769 5.0449 0.0530 -0.1990 5.1523 -0.0037 2.8662 0.7536 1.1567 -15.6638 -5.3886 3.9147 40.9631 -1.8909 0.9601 18.0703 0.0000 0.0000 0.0000 -1.9006 -2.6087 -33.6191 12.8596 -21.0811 2.4025 31.1945 7.1782 -19.4141 0.0 0.0 0.0 -7.1250 0.0 0.0 2.9927 52.3472 -0.5416 0.0000 0.0000 0.0000 -6.0142 -3.1355 24.9834 -12.6809 -20.8179 -2.3387 -17.636 -9.0643 -9.325 0.0 0.0 0.0 7.1250 0.0 -0.0 6.6608 20.2352 3.9725
-0.6168 18.1100 -9.2968 -6.0091 0.8527 7.4251 0.0000 0.0000 0.0000 -12.3556 -0.9781 -14.2230 2.1045 9.0805 26.0476 0.7729 -2.0635 -16.0384 0.4728 -4.4101 -12.2335 0.0000 0.0000 0.0000 27.5406 5.8566 -15.5965 -1.7607 -8.3488 23.7786 -0.2739 -6.6375 -14.4941 -0.4849 -4.4651 12.3889 0.1145 0.1146 -5.4240 5.0757 -0.0032 -0.1903 5.2056 -0.0326 2.8507 0.7297 1.1560 -15.7489 -5.4194 3.9380 40.9854 -1.8978 0.9593 18.1091 -0.0000 0.0000 0.0000 -1.877 -2.69 -33.7359 12.9280 -21.1816 2.4272 27.5177 6.9323 -22.6103 0.0 0.0 0.0 -7.1250 0.0 0.0 -1.5752 55.1275 0.3918 -0.0000 0.0000 0.0000 -6.0017 -3.1586 25.1003 -12.6525 -20.7759 -2.3286 -17.6926 -9.209 -9.5361 0.0 0.0 0.0 7.1250 0.0 -0.0 6.6189 20.0124 3.9805
-0.5966 18.1127 -9.2971 -6.0536 0.6823 7.3475 0.0000 0.0000 0.0000 -12.3763 -0.7729 -14.0839 2.0811 9.0330 25.8985 0.7761 -2.2920 -16.0251 0.3771 -3.9440 -10.9191 0.0000 0.0000 0.0000 27.5101 5.7416 -15.4981 -1.7471 -8.3181 23.6846 -0.2816 -6.4175 -14.3956 -0.5144 -4.5972 12.7630 0.2445 0.1840 -5.1779 4.9403 0.0962 -0.2597 4.9920 0.0231 2.6318 0.8839 1.1742 -15.7345 -5.3765 3.8983 41.0848 -1.9173 0.9726 18.1629 0.0000 0.0000 0.0000 -1.6049 -2.5984 -33.9604 13.0114 -21.3038 2.4574 23.5763 6.1259 -25.8535 0.0 0.0 0.0 -7.1250 0.0 0.0 -6.9978 57.7085 2.1842 0.0000 0.0000 0.0000 -5.7297 -3.0118 24.9459 -12.6047 -20.7053 -2.3116 -17.7725 -8.7775 -9.3784 0.0 0.0 0.0 7.1250 0.0 -0.0 6.5628 20.1715 3.9227
-0.5843 18.1177 -9.3169 -6.0468 0.8501 7.5932 0.0000 0.0000 0.0000 -12.3687 -0.8476 -14.4166 2.0653 9.0007 25.7976 0.7625 -2.6647 -15.8094 0.2869 -3.4447 -9.5195 0.0000 0.0000 0.0000 27.4254 5.7219 -15.8360 -1.7332 -8.2867 23.5885 -0.2578 -6.5034 -14.1274 -0.5082 -4.5697 12.6851 -0.0742 0.1066 -5.3865 5.0572 0.0029 -0.2680 5.2931 -0.0296 2.7486 0.8131 1.1720 -15.6978 -5.4317 3.9351 40.9570 -1.9183 0.9703 18.0803 0.0000 -0.0000 0.0000 -1.7595 -2.8331 -34.0257 13.0666 -21.3848 2.4775 19.2368 4.842 -28.8713 0.0 0.0 0.0 -7.1250 0.0 0.0 -13.3417 59.7667 4.8616 0.0000 -0.0000 0.0000 -5.8348 -3.1585 24.7881 -12.5872 -20.6793 -2.3054 -17.4988 -8.2052 -8.9726 0.0 0.0 0.0 7.1250 0.0 -0.0 6.7623 20.6093 3.9767
-0.5696 18.1217 -9.3281 -6.0946 0.8412 7.6807 0.0000 0.0000 0.0000 -12.3433 -0.8021 -14.5300 2.0550 8.9798 25.7320 0.7532 -2.8713 -15.6753 0.2492 -3.2121 -8.8698 0.0000 0.0000 0.0000 27.4088 5.6773 -15.9370 -1.7178 -8.2516 23.4810 -0.2362 -6.5622 -13.8583 -0.4637 -4.3680 12.1144 -0.2400 0.1239 -5.4981 5.1059 0.0334 -0.3048 5.4428 -0.0165 2.7703 0.7780 1.1276 -15.4643 -5.4162 3.8625 40.8689 -1.9146 0.9425 17.9591 -0.0000 -0.0000 0.0000 -1.7506 -2.8028 -34.2278 13.1650 -21.5286 2.5135 9.532 0.5095 -33.9554 0.0 0.0 0.0 -7.1250 0.0 0.0 -27.8852 62.1317 12.1224 -0.0000 -0.0000 0.0000 -5.8104 -2.9427 24.8239 -12.7235 -20.8807 -2.3538 -17.6402 -8.7805 -9.5184 0.0 0.0 0.0 7.1250 0.0 -0.0 6.6565 20.034 4.0002
-0.5570 18.1244 -9.3318 -6.0656 0.8130 7.6509 0.0000 0.0000 0.0000 -12.3972 -0.7964 -14.4918 2.0566 8.9830 25.7420 0.7502 -2.9439 -15.6306 0.2903 -3.4646 -9.5752 0.0000 0.0000 0.0000 27.3391 5.5621 -15.8755 -1.6985 -8.2077 23.3467 -0.2281 -6.6095 -13.7815 -0.4499 -4.3034 11.9318 -0.3812 0.1801 -5.4462 5.0219 0.1239 -0.3698 5.4403 0.0300 2.6648 0.8841 1.0833 -15.2653 -5.3417 3.7228 40.8827 -1.9257 0.9168 17.9037 -0.0000 0.0000 0.0000 -1.5278 -2.6406 -34.5238 13.2882 -21.708 2.5589 9.4463 0.3508 -34.2083 0.0 0.0 0.0 -7.1250 0.0 0.0 -28.2334 62.3291 12.4188 -0.0000 0.0000 0.0000 -5.6322 -2.4679 25.0391 -12.9963 -21.2818 -2.452 -17.9207 -9.5265 -9.6589 0.0 0.0 0.0 7.1250 0.0 -0.0 6.4557 19.8706 3.9017
-0.5421 18.1270 -9.3394 -6.2444 0.7321 7.6820 0.0000 0.0000 0.0000 -12.2251 -0.7904 -14.5395 2.0581 8.9861 25.7519 0.7483 -2.9506 -15.6095 0.3549 -3.8273 -10.5912 0.0000 0.0000 0.0000 27.4850 5.5645 -15.8470 -1.6750 -8.1536 23.1816 -0.2190 -6.6430 -13.6750 -0.4342 -4.2283 11.7198 -0.2814 0.2135 -5.4125 5.0277 0.1622 -0.3476 5.3920 0.0500 2.6654 0.9389 1.0979 -15.3480 -5.3581 3.7323 40.8557 -1.9408 0.9254 17.9123 0.0000 -0.0000 0.0000 -1.4382 -2.7349 -34.5399 13.3865 -21.8509 2.5954 9.2749 0.2351 -34.4161 0.0 0.0 0.0 -7.1250 0.0 0.0 -28.6279 62.4648 12.6994 0.0000 -0.0000 0.0000 -5.5356 -2.3963 25.2003 -13.0996 -21.433 -2.4896 -17.9197 -9.3816 -9.2922 0.0 0.0 0.0 7.1250 0.0 -0.0 6.4581 20.2524 3.8475
-0.5199 18.1318 -9.3543 -6.5088 0.5594 7.7658 0.0000 0.0000 0.0000 -12.0153 -0.7163 -14.6955 2.0597 8.9893 25.7619 0.7490 -2.9116 -15.6227 0.3704 -3.9091 -10.8211 0.0000 0.0000 0.0000 27.6811 5.6208 -15.8990 -1.6533 -8.1031 23.0278 -0.2131 -6.5492 -13.4870 -0.4193 -4.1560 11.5159 -0.0756 0.2478 -5.4000 5.1142 0.1916 -0.3081 5.3684 0.0657 2.6970 0.8555 1.1279 -15.4351 -5.3808 3.8164 40.8181 -1.9192 0.9412 17.9183 0.0000 0.0000 0.0000 -1.4978 -2.9336 -34.375 13.4173 -21.8955 2.6068 9.2295 0.2489 -34.4461 0.0 0.0 0.0 -7.1250 0.0 0.0 -28.7066 62.479 12.7471 0.0000 0.0000 0.0000 -5.5302 -2.6048 25.2845 -12.9804 -21.2585 -2.4462 -18.0627 -9.3408 -9.4833 0.0 0.0 0.0 7.1250 0.0 -0.0 6.3549 20.0447 3.8151
-0.5093 18.1373 -9.3541 -6.4664 0.6813 7.6700 0.0000 0.0000 0.0000 -12.0856 -0.5429 -14.6617 2.0598 8.9896 25.7628 0.7540 -3.2031 -15.6337 0.3837 -3.9779 -11.0146 0.0000 0.0000 0.0000 27.6239 5.4321 -15.7488 -1.6323 -8.0540 22.8784 -0.2100 -6.5934 -13.4825 -0.4173 -4.1463 11.4886 -0.3114 0.2150 -5.3846 5.1029 0.1616 -0.2757 5.4894 0.0470 2.7240 0.8680 1.1112 -15.4001 -5.3384 3.7716 40.8681 -1.9119 0.9312 17.9340 -0.0000 -0.0000 0.0000 -1.3965 -2.9529 -34.5916 13.4765 -21.9814 2.629 9.3682 0.1754 -34.4271 0.0 0.0 0.0 -7.1250 0.0 0.0 -28.5422 62.498 12.6804 -0.0000 -0.0000 0.0000 -5.3865 -2.5949 25.1546 -12.9024 -21.144 -2.418 -18.1764 -9.4463 -9.7051 0.0 0.0 0.0 7.1250 0.0 -0.0 6.2731 19.8063 3.7991
-0.4854 18.1399 -9.3630 -6.5266 0.5076 7.7325 0.0000 0.0000 0.0000 -12.1400 -0.5125 -14.7220 2.0568 8.9835 25.7437 0.7496 -3.0335 -15.6108 0.3990 -4.0555 -11.2329 0.0000 0.0000 0.0000 27.5955 5.2024 -15.8793 -1.6141 -8.0112 22.7482 -0.2151 -6.3087 -13.2773 -0.3952 -4.0363 11.1789 -0.1735 0.3344 -5.3032 4.9905 0.3211 -0.3450 5.3013 0.1321 2.5922 0.9859 1.0705 -15.3928 -5.3192 3.6637 40.9402 -1.9478 0.9088 17.9692 -0.0000 -0.0000 0.0000 -1.1799 -2.858 -34.901 13.6084 -22.1721 2.6785 9.4125 0.0473 -34.408 0.0 0.0 0.0 -7.1250 0.0 0.0 -28.4763 62.493 12.6451 -0.0000 -0.0000 0.0000 -5.1558 -2.3736 25.1196 -12.9525 -21.2175 -2.4361 -18.0894 -9.4292 -9.5629 0.0 0.0 0.0 7.1250 0.0 -0.0 6.3356 19.9601 3.8154
-0.4686 18.1425 -9.3689 -6.6379 0.3452 7.7152 0.0000 0.0000 0.0000 -12.0974 -0.5141 -14.6298 2.0459 8.9611 25.6737 0.7457 -2.8761 -15.5931 0.3647 -3.8793 -10.7373 0.0000 0.0000 0.0000 27.6435 5.1473 -15.8306 -1.5994 -7.9764 22.6423 -0.2228 -6.1543 -13.2466 -0.4140 -4.1301 11.4429 -0.1099 0.4055 -5.1654 4.9549 0.4186 -0.3769 5.2316 0.1838 2.4734 1.0210 1.0549 -15.3553 -5.2998 3.6187 40.9488 -1.9540 0.8991 17.9611 0.0000 0.0000 0.0000 -1.0288 -2.7434 -35.0145 13.7786 -22.4173 2.7431 9.3095 -0.1276 -34.5191 0.0 0.0 0.0 -7.1250 0.0 0.0 -28.7001 62.5622 12.8002 0.0000 0.0000 0.0000 -5.0142 -2.1833 25.3864 -12.9761 -21.2522 -2.4446 -18.1553 -9.5699 -9.4055 0.0 0.0 0.0 7.1250 0.0 -0.0 6.2889 20.12 3.7643
-0.4580 18.1462 -9.3737 -6.6409 0.2479 7.6631 0.0000 0.0000 0.0000 -12.1370 -0.6550 -14.4695 2.0394 8.9476 25.6315 0.7498 -2.6955 -15.6676 0.3342 -3.7152 -10.2769 0.0000 0.0000 0.0000 27.5749 5.2748 -15.6626 -1.5853 -7.9428 22.5406 -0.2345 -6.1045 -13.3834 -0.5033 -4.5477 12.6230 -0.2900 0.4322 -5.2004 4.9483 0.4605 -0.2910 5.3325 0.2003 2.5767 0.9854 1.0503 -15.3307 -5.2176 3.5876 40.9292 -1.9141 0.8926 17.9372 -0.0000 -0.0000 0.0000 -0.9028 -2.7816 -35.1914 13.9303 -22.6349 2.8012 9.3981 -0.3004 -34.5776 0.0 0.0 0.0 -7.1250 0.0 0.0 -28.6697 62.6352 12.8347 -0.0000 -0.0000 0.0000 -4.9139 -2.2441 25.3784 -12.9279 -21.1815 -2.4272 -17.957 -9.3053 -9.4117 0.0 0.0 0.0 7.1250 0.0 -0.0 6.4307 20.1257 3.8494
-0.4455 18.1480 -9.3802 -6.7372 0.1835 7.6326 0.0000 0.0000 0.0000 -12.0916 -0.7376 -14.3583 2.0305 8.9294 25.5747 0.7580 -2.5184 -15.7875 0.3398 -3.7459 -10.3628 0.0000 0.0000 0.0000 27.6184 5.3284 -15.5840 -1.5763 -7.9213 22.4754 -0.2428 -6.0598 -13.4716 -0.5342 -4.6835 13.0080 -0.3607 0.4296 -5.2996 4.9921 0.4510 -0.1338 5.4229 0.1891 2.7952 0.8875 1.0679 -15.4801 -5.1452 3.6213 40.9444 -1.8568 0.8979 17.9838 0.0000 -0.0000 0.0000 -0.8402 -2.9923 -35.2877 14.0343 -22.7838 2.8414 9.5305 -0.3166 -34.57 0.0 0.0 0.0 -7.1250 0.0 0.0 -28.5237 62.6628 12.7821 0.0000 -0.0000 0.0000 -4.8552 -2.4931 25.2875 -12.8786 -21.1091 -2.4094 -17.7329 -8.9934 -9.5272 0.0 0.0 0.0 7.1250 0.0 -0.0 6.5902 20.0192 3.962
-0.4288 18.1478 -9.3887 -6.9234 0.0305 7.6238 0.0000 0.0000 0.0000 -11.9815 -0.6563 -14.3033 2.0171 8.9017 25.4882 0.7658 -2.4278 -15.8877 0.3254 -3.6662 -10.1395 0.0000 0.0000 0.0000 27.7543 5.3166 -15.6113 -1.5765 -7.9219 22.4772 -0.2471 -5.9191 -13.4050 -0.5206 -4.6241 12.8394 -0.2497 0.4324 -5.2220 5.0524 0.4439 -0.0335 5.4229 0.1843 2.8567 0.8067 1.1448 -15.7504 -5.1360 3.7738 41.0064 -1.8114 0.9420 18.1009 -0.0000 0.0000 0.0000 -0.8378 -3.2399 -35.1804 14.0741 -22.8406 2.8568 9.4687 -0.3085 -34.6349 0.0 0.0 0.0 -7.1250 0.0 0.0 -28.6568 62.7027 12.8739 -0.0000 0.0000 0.0000 -4.7906 -2.7915 25.4298 -12.7363 -20.8996 -2.3584 -17.9488 -9.1175 -9.74 0.0 0.0 0.0 7.1250 0.0 -0.0 6.4353 19.7844 3.9017
